<svg width="20.000000" height="20.000000" viewBox="0 0 20 20" fill="none" xmlns="http://www.w3.org/2000/svg" xmlns:xlink="http://www.w3.org/1999/xlink">
	<desc>
			Created with Pixso.
	</desc>
	<defs>
		<clipPath id="clip3_1131">
			<rect id="cart" width="20.000000" height="20.000000" fill="white" fill-opacity="0"/>
		</clipPath>
	</defs>
	<g clip-path="url(#clip3_1131)">
		<path id="Vector" d="M16.875 2.8125L3.125 2.8125C2.7106 2.8125 2.31317 2.97711 2.02014 3.27014C1.72711 3.56317 1.5625 3.9606 1.5625 4.375L1.5625 15.625C1.5625 16.0394 1.72711 16.4368 2.02014 16.7299C2.31317 17.0229 2.7106 17.1875 3.125 17.1875L16.875 17.1875C17.2894 17.1875 17.6868 17.0229 17.9799 16.7299C18.2729 16.4368 18.4375 16.0394 18.4375 15.625L18.4375 4.375C18.4375 3.9606 18.2729 3.56317 17.9799 3.27014C17.6868 2.97711 17.2894 2.8125 16.875 2.8125ZM16.5625 15.3125L3.4375 15.3125L3.4375 4.6875L16.5625 4.6875L16.5625 15.3125ZM5.9375 6.875C5.9375 6.62637 6.03629 6.38791 6.2121 6.2121C6.38791 6.03629 6.62637 5.9375 6.875 5.9375C7.12363 5.9375 7.36209 6.03629 7.5379 6.2121C7.71371 6.38791 7.8125 6.62637 7.8125 6.875C7.8125 7.45517 8.04297 8.01157 8.45322 8.42178C8.86343 8.83203 9.41983 9.0625 10 9.0625C10.5802 9.0625 11.1366 8.83203 11.5468 8.42178C11.957 8.01157 12.1875 7.45517 12.1875 6.875C12.1875 6.62637 12.2863 6.38791 12.4621 6.2121C12.6379 6.03629 12.8764 5.9375 13.125 5.9375C13.3736 5.9375 13.6121 6.03629 13.7879 6.2121C13.9637 6.38791 14.0625 6.62637 14.0625 6.875C14.0625 7.95245 13.6345 8.98575 12.8726 9.74762C12.1107 10.5095 11.0775 10.9375 10 10.9375C8.92255 10.9375 7.88925 10.5095 7.12738 9.74762C6.36551 8.98575 5.9375 7.95245 5.9375 6.875Z" fill="#FFFFFF" fill-opacity="1.000000" fill-rule="nonzero"/>
	</g>
</svg>
