<svg width="20.000000" height="20.000000" viewBox="0 0 20 20" fill="none" xmlns="http://www.w3.org/2000/svg" xmlns:xlink="http://www.w3.org/1999/xlink">
	<desc>
			Created with Pixso.
	</desc>
	<defs>
		<clipPath id="clip3_687">
			<rect id="cart" width="20.000000" height="20.000000" fill="white" fill-opacity="0"/>
		</clipPath>
	</defs>
	<g clip-path="url(#clip3_687)">
		<path id="Vector" d="M16.875 2.8125L3.125 2.8125C2.71057 2.8125 2.31317 2.97712 2.02014 3.27015C1.72711 3.56317 1.5625 3.9606 1.5625 4.375L1.5625 15.625C1.5625 16.0394 1.72711 16.4368 2.02014 16.7299C2.31317 17.0229 2.71057 17.1875 3.125 17.1875L16.875 17.1875C17.2894 17.1875 17.6868 17.0229 17.9799 16.7299C18.2729 16.4368 18.4375 16.0394 18.4375 15.625L18.4375 4.375C18.4375 3.9606 18.2729 3.56317 17.9799 3.27015C17.6868 2.97712 17.2894 2.8125 16.875 2.8125ZM16.5625 15.3125L3.4375 15.3125L3.4375 4.6875L16.5625 4.6875L16.5625 15.3125ZM5.9375 6.875C5.9375 6.62636 6.03625 6.3879 6.2121 6.21209C6.38788 6.03627 6.62634 5.9375 6.875 5.9375C7.12366 5.9375 7.36212 6.03627 7.5379 6.21209C7.71375 6.3879 7.8125 6.62636 7.8125 6.875C7.8125 7.45516 8.04297 8.01156 8.45319 8.42179C8.86346 8.83203 9.41986 9.0625 10 9.0625C10.5801 9.0625 11.1365 8.83203 11.5468 8.42179C11.957 8.01156 12.1875 7.45516 12.1875 6.875C12.1875 6.62636 12.2863 6.3879 12.4621 6.21209C12.6379 6.03627 12.8763 5.9375 13.125 5.9375C13.3737 5.9375 13.6121 6.03627 13.7879 6.21209C13.9637 6.3879 14.0625 6.62636 14.0625 6.875C14.0625 7.95244 13.6345 8.98575 12.8726 9.74762C12.1108 10.5095 11.0775 10.9375 10 10.9375C8.92255 10.9375 7.88922 10.5095 7.12738 9.74762C6.36554 8.98575 5.9375 7.95244 5.9375 6.875Z" fill="#3624FF" fill-opacity="1.000000" fill-rule="nonzero"/>
	</g>
</svg>
