<svg width="16.894745" height="16.895515" viewBox="0 0 16.8947 16.8955" fill="none" xmlns="http://www.w3.org/2000/svg" xmlns:xlink="http://www.w3.org/1999/xlink">
	<desc>
			Created with Pixso.
	</desc>
	<defs/>
	<path id="Vector" d="M16.6165 15.29L12.9064 11.5783C14.0188 10.1286 14.5382 8.31013 14.3591 6.49165C14.1801 4.67318 13.316 2.99089 11.9422 1.78607C10.5684 0.581238 8.78775 -0.0559158 6.96146 0.00385475C5.13516 0.0636253 3.39999 0.815844 2.10791 2.10792C0.815857 3.4 0.0636292 5.13518 0.00384521 6.96147C-0.0559082 8.78776 0.581238 10.5684 1.78607 11.9422C2.99091 13.316 4.67319 14.1801 6.49164 14.3591C8.31012 14.5382 10.1286 14.0188 11.5782 12.9064L15.2915 16.6204C15.3788 16.7077 15.4823 16.7768 15.5962 16.824C15.7101 16.8712 15.8323 16.8955 15.9556 16.8955C16.0789 16.8955 16.201 16.8712 16.315 16.824C16.4289 16.7768 16.5325 16.7077 16.6197 16.6204C16.7069 16.5332 16.7761 16.4297 16.8232 16.3158C16.8705 16.2018 16.8947 16.0797 16.8947 15.9564C16.8947 15.8331 16.8705 15.7109 16.8232 15.597C16.7761 15.4831 16.7069 15.3795 16.6197 15.2923L16.6165 15.29ZM1.89075 7.20326C1.89075 6.15255 2.20233 5.12543 2.78607 4.25179C3.36981 3.37816 4.19952 2.69724 5.17026 2.29515C6.14099 1.89306 7.20917 1.78786 8.23969 1.99284C9.2702 2.19782 10.2168 2.70379 10.9598 3.44676C11.7027 4.18972 12.2087 5.13632 12.4137 6.16685C12.6187 7.19737 12.5135 8.26554 12.1114 9.23627C11.7093 10.207 11.0284 11.0367 10.1547 11.6204C9.2811 12.2042 8.25397 12.5158 7.20328 12.5158C5.79474 12.5143 4.44434 11.9541 3.44836 10.9582C2.45239 9.9622 1.89221 8.61178 1.89075 7.20326Z" fill="#5C6970" fill-opacity="1.000000" fill-rule="nonzero"/>
</svg>
