<svg width="20.000000" height="20.000000" viewBox="0 0 20 20" fill="none" xmlns="http://www.w3.org/2000/svg" xmlns:xlink="http://www.w3.org/1999/xlink">
	<desc>
			Created with Pixso.
	</desc>
	<defs>
		<clipPath id="clip2_2272">
			<rect id="star" width="20.000000" height="20.000000" fill="white" fill-opacity="0"/>
		</clipPath>
	</defs>
	<rect id="star" width="20.000000" height="20.000000" fill="#FFFFFF" fill-opacity="0"/>
	<g clip-path="url(#clip2_2272)">
		<path id="Vector" d="M17.0539 14.232C16.9906 14.3377 16.9071 14.4298 16.8081 14.5032C16.7092 14.5766 16.5968 14.6297 16.4773 14.6596C16.3578 14.6895 16.2336 14.6956 16.1117 14.6774C15.9899 14.6593 15.8728 14.6173 15.7672 14.5539L10.9375 11.6555L10.9375 16.875C10.9375 17.1236 10.8387 17.3621 10.6629 17.5379C10.4871 17.7137 10.2487 17.8125 10 17.8125C9.75137 17.8125 9.51294 17.7137 9.33713 17.5379C9.16129 17.3621 9.06253 17.1236 9.06253 16.875L9.06253 11.6555L4.23285 14.5539C4.12726 14.6172 4.01025 14.6592 3.88849 14.6773C3.76669 14.6955 3.64255 14.6894 3.5231 14.6596C3.40366 14.6297 3.29126 14.5766 3.19232 14.5033C3.09338 14.4301 3.00986 14.338 2.9465 14.2324C2.81857 14.0192 2.78055 13.7639 2.84085 13.5227C2.90112 13.2814 3.05478 13.074 3.26801 12.9461L8.17816 10L3.26801 7.05389C3.05478 6.92596 2.90112 6.71857 2.84085 6.47733C2.78055 6.23608 2.81857 5.98077 2.9465 5.76758C3.07446 5.55438 3.28186 5.40073 3.5231 5.34042C3.76431 5.28015 4.01962 5.31815 4.23285 5.44611L9.06253 8.34454L9.06253 3.125C9.06253 2.87637 9.16129 2.63791 9.33713 2.4621C9.51294 2.28629 9.75137 2.1875 10 2.1875C10.2487 2.1875 10.4871 2.28629 10.6629 2.4621C10.8387 2.63791 10.9375 2.87637 10.9375 3.125L10.9375 8.34454L15.7672 5.44611C15.8728 5.38275 15.9898 5.34079 16.1116 5.32266C16.2334 5.30453 16.3575 5.31058 16.477 5.34042C16.5964 5.37027 16.7088 5.42337 16.8077 5.49667C16.9067 5.56995 16.9902 5.66202 17.0535 5.76758C17.1169 5.87314 17.1588 5.99017 17.177 6.11194C17.1951 6.23373 17.1891 6.35788 17.1592 6.47733C17.1294 6.59677 17.0763 6.70917 17.003 6.80811C16.9297 6.90704 16.8376 6.99054 16.7321 7.05389L11.8219 10L16.7321 12.9461C16.9452 13.074 17.0989 13.2813 17.1593 13.5224C17.2196 13.7635 17.1817 14.0188 17.0539 14.232Z" fill="#3624FF" fill-opacity="1.000000" fill-rule="nonzero"/>
	</g>
</svg>
